<svg width="24" height="24" viewBox="0 0 24 24" fill="none" xmlns="http://www.w3.org/2000/svg">
<g clip-path="url(#clip0_3_7)">
<path fill-rule="evenodd" clip-rule="evenodd" d="M21.546 5.111C21.8272 5.39229 21.9852 5.77376 21.9852 6.1715C21.9852 6.56925 21.8272 6.95071 21.546 7.232L10.303 18.475C10.1544 18.6236 9.97803 18.7415 9.78388 18.8219C9.58974 18.9024 9.38165 18.9438 9.1715 18.9438C8.96136 18.9438 8.75327 18.9024 8.55913 18.8219C8.36498 18.7415 8.18858 18.6236 8.04 18.475L2.454 12.89C2.31074 12.7516 2.19646 12.5861 2.11785 12.4031C2.03924 12.2201 1.99786 12.0233 1.99613 11.8241C1.9944 11.6249 2.03235 11.4274 2.10777 11.2431C2.18319 11.0587 2.29457 10.8912 2.43541 10.7504C2.57625 10.6096 2.74373 10.4982 2.92807 10.4228C3.11242 10.3473 3.30994 10.3094 3.50911 10.3111C3.70827 10.3129 3.9051 10.3542 4.08811 10.4328C4.27112 10.5115 4.43663 10.6257 4.575 10.769L9.171 15.365L19.424 5.111C19.5633 4.97161 19.7287 4.86104 19.9108 4.78559C20.0928 4.71015 20.2879 4.67132 20.485 4.67132C20.6821 4.67132 20.8772 4.71015 21.0593 4.78559C21.2413 4.86104 21.4067 4.97161 21.546 5.111Z" fill="#0D9488"/>
</g>
<defs>
<clipPath id="clip0_3_7">
<rect width="24" height="24" fill="white"/>
</clipPath>
</defs>
</svg>
