<svg width="20" height="20" viewBox="0 0 20 20" fill="none" xmlns="http://www.w3.org/2000/svg">
<path d="M19.4125 3.4125C20.1937 2.63125 20.1937 1.3625 19.4125 0.581253C18.6312 -0.199997 17.3625 -0.199997 16.5812 0.581253L9.99999 7.16875L3.41249 0.587503C2.63124 -0.193747 1.36249 -0.193747 0.581238 0.587503C-0.200012 1.36875 -0.200012 2.6375 0.581238 3.41875L7.16874 10L0.587488 16.5875C-0.193762 17.3688 -0.193762 18.6375 0.587488 19.4188C1.36874 20.2 2.63749 20.2 3.41874 19.4188L9.99999 12.8313L16.5875 19.4125C17.3687 20.1938 18.6375 20.1938 19.4187 19.4125C20.2 18.6313 20.2 17.3625 19.4187 16.5813L12.8312 10L19.4125 3.4125Z" fill="white"/>
</svg>
