<svg width="24" height="24" viewBox="0 0 24 24" fill="none" xmlns="http://www.w3.org/2000/svg">
<path fill-rule="evenodd" clip-rule="evenodd" d="M22.125 12C22.125 12.2984 22.0065 12.5845 21.7955 12.7955C21.5845 13.0065 21.2984 13.125 21 13.125H5.715L9.795 17.205C9.90553 17.308 9.99419 17.4322 10.0557 17.5702C10.1172 17.7082 10.1502 17.8572 10.1529 18.0082C10.1556 18.1593 10.1278 18.3093 10.0712 18.4494C10.0146 18.5895 9.93039 18.7167 9.82356 18.8236C9.71673 18.9304 9.58948 19.0146 9.4494 19.0712C9.30932 19.1278 9.15927 19.1556 9.00822 19.1529C8.85716 19.1502 8.70819 19.1172 8.57019 19.0557C8.4322 18.9942 8.30799 18.9055 8.205 18.795L2.205 12.795C1.99433 12.5841 1.87599 12.2981 1.87599 12C1.87599 11.7019 1.99433 11.4159 2.205 11.205L8.205 5.205C8.41826 5.00628 8.70033 4.89809 8.99179 4.90324C9.28324 4.90838 9.56132 5.02645 9.76743 5.23257C9.97355 5.43869 10.0916 5.71676 10.0968 6.00821C10.1019 6.29967 9.99372 6.58174 9.795 6.795L5.715 10.875H21C21.2984 10.875 21.5845 10.9935 21.7955 11.2045C22.0065 11.4155 22.125 11.7016 22.125 12Z" fill="#475569"/>
</svg>
